<svg width="28" height="27" viewBox="0 0 28 27" fill="none" xmlns="http://www.w3.org/2000/svg">
    <g clip-path="url(#clip0_113_1716)">
        <path d="M14.1164 0.0406494C6.76658 0.0406494 0.806641 6.03545 0.806641 13.4307C0.806641 19.3468 4.62029 24.366 9.90866 26.1365C10.5738 26.2605 10.8181 25.8461 10.8181 25.4924C10.8181 25.1731 10.8057 24.1183 10.8 22.9994C7.09719 23.8094 6.31586 21.4196 6.31586 21.4196C5.71041 19.8719 4.83805 19.4603 4.83805 19.4603C3.63046 18.6293 4.92908 18.6464 4.92908 18.6464C6.26561 18.7408 6.96936 20.0262 6.96936 20.0262C8.15645 22.0733 10.083 21.4815 10.8425 21.1393C10.962 20.2739 11.3069 19.6832 11.6875 19.3488C8.73127 19.0102 5.62357 17.8621 5.62357 12.7314C5.62357 11.2695 6.1435 10.075 6.99492 9.13729C6.85673 8.80003 6.40115 7.43814 7.12386 5.59376C7.12386 5.59376 8.24153 5.23388 10.785 6.96629C11.8467 6.66961 12.9853 6.52083 14.1164 6.51573C15.2475 6.52083 16.387 6.66961 17.4507 6.96629C19.991 5.23388 21.1072 5.59376 21.1072 5.59376C21.8316 7.43814 21.3758 8.80003 21.2376 9.13729C22.0911 10.075 22.6075 11.2695 22.6075 12.7314C22.6075 17.8743 19.4938 19.0067 16.53 19.3382C17.0074 19.7537 17.4328 20.5686 17.4328 21.8178C17.4328 23.6094 17.4174 25.0514 17.4174 25.4924C17.4174 25.8487 17.657 26.2663 18.3316 26.1348C23.6171 24.3622 27.4259 19.3448 27.4259 13.4307C27.4259 6.03545 21.4669 0.0406494 14.1164 0.0406494ZM5.79158 19.1151C5.76226 19.1816 5.65823 19.2016 5.56346 19.1559C5.46692 19.1122 5.4127 19.0215 5.444 18.9548C5.47265 18.8863 5.5769 18.8672 5.67322 18.9131C5.76998 18.9568 5.82508 19.0484 5.79158 19.1151ZM6.44627 19.7028C6.38279 19.762 6.25871 19.7345 6.17451 19.6409C6.08745 19.5476 6.07114 19.4228 6.1355 19.3627C6.20096 19.3035 6.3213 19.3312 6.40858 19.4245C6.49564 19.519 6.51261 19.6429 6.44627 19.7028ZM6.89541 20.4547C6.81386 20.5117 6.68052 20.4583 6.59809 20.3392C6.51654 20.2201 6.51654 20.0774 6.59985 20.0201C6.6825 19.9629 6.81386 20.0144 6.8974 20.1326C6.97872 20.2536 6.97872 20.3964 6.89541 20.4547ZM7.65501 21.3256C7.58206 21.4065 7.42667 21.3848 7.31294 21.2744C7.19657 21.1664 7.16417 21.0132 7.23734 20.9322C7.31118 20.8511 7.46745 20.8739 7.58206 20.9835C7.69755 21.0912 7.73281 21.2455 7.65501 21.3256ZM8.63672 21.6196C8.60454 21.7245 8.45488 21.7721 8.30413 21.7276C8.15359 21.6817 8.05507 21.5588 8.08549 21.4528C8.11678 21.3473 8.2671 21.2976 8.41896 21.3453C8.56927 21.391 8.66801 21.5129 8.63672 21.6196ZM9.75394 21.7443C9.75769 21.8547 9.62985 21.9463 9.4716 21.9483C9.31247 21.9518 9.18375 21.8625 9.18199 21.7538C9.18199 21.6423 9.30696 21.5516 9.46609 21.5489C9.62434 21.5458 9.75394 21.6345 9.75394 21.7443ZM10.8515 21.702C10.8704 21.8097 10.7605 21.9204 10.6033 21.9499C10.4488 21.9782 10.3058 21.9117 10.2861 21.8048C10.267 21.6944 10.3789 21.5838 10.5332 21.5552C10.6906 21.5277 10.8314 21.5924 10.8515 21.702Z"
              fill="white"/>
    </g>
    <defs>
        <clipPath id="clip0_113_1716">
            <rect width="26.6193" height="26.1523" fill="white" transform="translate(0.806641 0.0406494)"/>
        </clipPath>
    </defs>
</svg>
