<svg xmlns="http://www.w3.org/2000/svg" width="24" height="24" viewBox="0 0 24 24" fill="none">
    <g clip-path="url(#clip0_69_455)">
        <path d="M12 0.629456C5.60883 0.629456 0.42627 5.84233 0.42627 12.273C0.42627 17.4174 3.74249 21.7819 8.34107 23.3215C8.91949 23.4293 9.13184 23.0689 9.13184 22.7614C9.13184 22.4838 9.12111 21.5666 9.11613 20.5936C5.89631 21.298 5.21689 19.2198 5.21689 19.2198C4.69042 17.874 3.93184 17.5161 3.93184 17.5161C2.88176 16.7935 4.011 16.8083 4.011 16.8083C5.1732 16.8905 5.78515 18.0082 5.78515 18.0082C6.81741 19.7882 8.49267 19.2736 9.15312 18.9761C9.25699 18.2236 9.55694 17.7099 9.88792 17.4192C7.31725 17.1247 4.6149 16.1264 4.6149 11.6649C4.6149 10.3937 5.06702 9.35498 5.80738 8.53958C5.68722 8.24631 5.29106 7.06206 5.9195 5.45825C5.9195 5.45825 6.89139 5.14531 9.10309 6.65175C10.0263 6.39377 11.0164 6.26439 12 6.25996C12.9835 6.26439 13.9744 6.39377 14.8993 6.65175C17.1084 5.14531 18.0789 5.45825 18.0789 5.45825C18.7089 7.06206 18.3125 8.24631 18.1924 8.53958C18.9345 9.35498 19.3835 10.3937 19.3835 11.6649C19.3835 16.137 16.676 17.1217 14.0988 17.4099C14.5139 17.7712 14.8838 18.4798 14.8838 19.5661C14.8838 21.1241 14.8704 22.3779 14.8704 22.7614C14.8704 23.0713 15.0787 23.4343 15.6654 23.32C20.2615 21.7786 23.5735 17.4157 23.5735 12.273C23.5735 5.84233 18.3917 0.629456 12 0.629456ZM4.761 17.2159C4.73551 17.2738 4.64504 17.2911 4.56263 17.2514C4.47869 17.2134 4.43154 17.1346 4.45876 17.0765C4.48367 17.017 4.57432 17.0004 4.65808 17.0403C4.74221 17.0783 4.79013 17.1579 4.761 17.2159ZM5.33029 17.727C5.2751 17.7785 5.16719 17.7545 5.09398 17.6732C5.01828 17.592 5.0041 17.4835 5.06006 17.4312C5.11698 17.3797 5.22162 17.4038 5.29752 17.485C5.37322 17.5671 5.38798 17.6749 5.33029 17.727ZM5.72085 18.3808C5.64994 18.4304 5.53399 18.3839 5.46231 18.2804C5.3914 18.1768 5.3914 18.0527 5.46384 18.0029C5.53571 17.9532 5.64994 17.9979 5.72258 18.1007C5.7933 18.206 5.7933 18.3301 5.72085 18.3808ZM6.38137 19.1381C6.31793 19.2085 6.18282 19.1896 6.08392 19.0936C5.98273 18.9997 5.95456 18.8664 6.01819 18.7961C6.08239 18.7255 6.21827 18.7453 6.31794 18.8406C6.41836 18.9343 6.44903 19.0685 6.38137 19.1381ZM7.23503 19.3937C7.20705 19.4849 7.07692 19.5264 6.94582 19.4876C6.81492 19.4477 6.72925 19.3409 6.7557 19.2488C6.78292 19.157 6.91362 19.1138 7.04568 19.1552C7.17638 19.195 7.26225 19.301 7.23503 19.3937ZM8.20653 19.5022C8.20979 19.5982 8.09863 19.6778 7.96102 19.6796C7.82264 19.6827 7.71072 19.605 7.70918 19.5105C7.70918 19.4135 7.81785 19.3346 7.95623 19.3323C8.09384 19.3296 8.20653 19.4067 8.20653 19.5022ZM9.16092 19.4654C9.1774 19.5591 9.08176 19.6553 8.94511 19.6809C8.81076 19.7056 8.68638 19.6478 8.66932 19.5548C8.65265 19.4588 8.75001 19.3626 8.88417 19.3377C9.02101 19.3138 9.14348 19.3701 9.16092 19.4654Z" fill="#828282"/>
    </g>
    <defs>
        <clipPath id="clip0_69_455">
            <rect width="23.1472" height="22.7411" fill="white" transform="translate(0.42627 0.629456)"/>
        </clipPath>
    </defs>
</svg>