<svg xmlns="http://www.w3.org/2000/svg" width="18" height="20" viewBox="0 0 18 20" fill="none">
    <g clip-path="url(#clip0_69_452)">
        <path d="M4.1215 17.4619H0.459203V5.83766H4.1215V17.4619ZM2.28838 4.252C1.11755 4.252 0.16748 3.29594 0.16748 2.14168C0.16748 0.987409 1.11755 0.0507812 2.28838 0.0507812C3.45921 0.0507812 4.40928 0.987409 4.40928 2.14168C4.40928 3.29594 3.45921 4.252 2.28838 4.252ZM17.8285 17.4619H14.1741V11.8033C14.1741 10.4547 14.1465 8.72527 12.27 8.72527C10.3659 8.72527 10.0742 10.1905 10.0742 11.7062V17.4619H6.41586V5.83766H9.92836V7.42332H9.9796C10.4684 6.51001 11.6629 5.54618 13.4448 5.54618C17.1505 5.54618 17.8325 7.95187 17.8325 11.0766V17.4619H17.8285Z" fill="#828282"/>
    </g>
    <defs>
        <clipPath id="clip0_69_452">
            <rect width="17.665" height="19.8985" fill="white" transform="translate(0.16748 0.0507812)"/>
        </clipPath>
    </defs>
</svg>