<svg width="22" height="24" viewBox="0 0 22 24" fill="none" xmlns="http://www.w3.org/2000/svg">
    <g clip-path="url(#clip0_113_1711)">
        <path d="M5.38892 20.698H1.17728V7.33008H5.38892V20.698ZM3.28083 5.50657C1.93438 5.50657 0.841797 4.40711 0.841797 3.0797C0.841797 1.75229 1.93438 0.675171 3.28083 0.675171C4.62729 0.675171 5.71987 1.75229 5.71987 3.0797C5.71987 4.40711 4.62729 5.50657 3.28083 5.50657ZM21.152 20.698H16.9494V14.1906C16.9494 12.6397 16.9177 10.6508 14.7597 10.6508C12.57 10.6508 12.2345 12.3358 12.2345 14.0789V20.698H8.02743V7.33008H12.0668V9.15359H12.1257C12.6879 8.10329 14.0616 6.99488 16.1107 6.99488C20.3722 6.99488 21.1565 9.76143 21.1565 13.3548V20.698H21.152Z"
              fill="white"/>
    </g>
    <defs>
        <clipPath id="clip0_113_1711">
            <rect width="20.3147" height="22.8832" fill="white" transform="translate(0.841797 0.675171)"/>
        </clipPath>
    </defs>
</svg>
